<mxfile host="app.diagrams.net" agent="Mozilla/5.0 (Windows NT 10.0; Win64; x64) AppleWebKit/537.36 (KHTML, like Gecko) Chrome/141.0.0.0 Safari/537.36" version="28.2.7">
  <diagram name="Trang-1" id="n2l8kIQzBQYOINg-zM32">
    <mxGraphModel dx="1042" dy="692" grid="1" gridSize="10" guides="1" tooltips="1" connect="1" arrows="1" fold="1" page="1" pageScale="1" pageWidth="827" pageHeight="1169" math="0" shadow="0">
      <root>
        <mxCell id="xhvXuannrQBQO4RMrvDz-0" />
        <mxCell id="xhvXuannrQBQO4RMrvDz-1" parent="xhvXuannrQBQO4RMrvDz-0" />
        <mxCell id="QgWrlgiO3IHt8RUZaehN-0" value="bắt đầu" style="ellipse;whiteSpace=wrap;html=1;" vertex="1" parent="xhvXuannrQBQO4RMrvDz-1">
          <mxGeometry x="320" y="20" width="120" height="80" as="geometry" />
        </mxCell>
        <mxCell id="QgWrlgiO3IHt8RUZaehN-1" value="" style="endArrow=classic;html=1;rounded=0;exitX=0.5;exitY=1;exitDx=0;exitDy=0;" edge="1" parent="xhvXuannrQBQO4RMrvDz-1" source="QgWrlgiO3IHt8RUZaehN-0">
          <mxGeometry width="50" height="50" relative="1" as="geometry">
            <mxPoint x="390" y="380" as="sourcePoint" />
            <mxPoint x="380" y="130" as="targetPoint" />
          </mxGeometry>
        </mxCell>
        <mxCell id="QgWrlgiO3IHt8RUZaehN-3" style="edgeStyle=orthogonalEdgeStyle;rounded=0;orthogonalLoop=1;jettySize=auto;html=1;exitX=0.5;exitY=1;exitDx=0;exitDy=0;" edge="1" parent="xhvXuannrQBQO4RMrvDz-1" source="QgWrlgiO3IHt8RUZaehN-2">
          <mxGeometry relative="1" as="geometry">
            <mxPoint x="370" y="260" as="targetPoint" />
          </mxGeometry>
        </mxCell>
        <mxCell id="QgWrlgiO3IHt8RUZaehN-2" value="nhập 2 số nguyên a, b" style="shape=parallelogram;perimeter=parallelogramPerimeter;whiteSpace=wrap;html=1;fixedSize=1;" vertex="1" parent="xhvXuannrQBQO4RMrvDz-1">
          <mxGeometry x="280" y="130" width="180" height="90" as="geometry" />
        </mxCell>
        <mxCell id="QgWrlgiO3IHt8RUZaehN-5" style="edgeStyle=orthogonalEdgeStyle;rounded=0;orthogonalLoop=1;jettySize=auto;html=1;exitX=0.5;exitY=1;exitDx=0;exitDy=0;" edge="1" parent="xhvXuannrQBQO4RMrvDz-1" source="QgWrlgiO3IHt8RUZaehN-4">
          <mxGeometry relative="1" as="geometry">
            <mxPoint x="370" y="380" as="targetPoint" />
          </mxGeometry>
        </mxCell>
        <mxCell id="QgWrlgiO3IHt8RUZaehN-4" value="tính tổng a + b" style="rounded=0;whiteSpace=wrap;html=1;" vertex="1" parent="xhvXuannrQBQO4RMrvDz-1">
          <mxGeometry x="295" y="260" width="150" height="80" as="geometry" />
        </mxCell>
        <mxCell id="QgWrlgiO3IHt8RUZaehN-8" style="edgeStyle=orthogonalEdgeStyle;rounded=0;orthogonalLoop=1;jettySize=auto;html=1;exitX=0.5;exitY=1;exitDx=0;exitDy=0;" edge="1" parent="xhvXuannrQBQO4RMrvDz-1" source="QgWrlgiO3IHt8RUZaehN-6">
          <mxGeometry relative="1" as="geometry">
            <mxPoint x="370" y="470" as="targetPoint" />
          </mxGeometry>
        </mxCell>
        <mxCell id="QgWrlgiO3IHt8RUZaehN-6" value="kết quả" style="rounded=0;whiteSpace=wrap;html=1;" vertex="1" parent="xhvXuannrQBQO4RMrvDz-1">
          <mxGeometry x="310" y="380" width="120" height="60" as="geometry" />
        </mxCell>
        <mxCell id="QgWrlgiO3IHt8RUZaehN-9" value="" style="ellipse;whiteSpace=wrap;html=1;" vertex="1" parent="xhvXuannrQBQO4RMrvDz-1">
          <mxGeometry x="310" y="470" width="120" height="80" as="geometry" />
        </mxCell>
      </root>
    </mxGraphModel>
  </diagram>
</mxfile>
